<svg display="block" role="presentation" viewBox="0 0 25 25" xmlns="http://www.w3.org/2000/svg"><path d="M 17.5 7.934 C 17.5 5.742 16.637 3.704 15.072 2.192 C 13.507 0.68 11.448 -0.094 9.278 0.009 C 5.089 0.207 1.812 3.78 1.812 8.186 C 1.812 8.906 1.634 9.617 1.292 10.242 L 0.162 12.339 C -0.065 12.758 -0.051 13.253 0.189 13.667 C 0.429 14.076 0.856 14.319 1.323 14.319 L 1.541 14.319 L 1.541 17.226 C 1.541 18.612 2.657 19.742 4.026 19.742 L 6.917 19.742 L 7.877 22.216 C 7.944 22.392 8.113 22.5 8.291 22.5 C 8.344 22.5 8.398 22.491 8.451 22.468 C 8.678 22.378 8.793 22.117 8.704 21.883 L 7.633 19.116 L 7.633 19.112 L 6.823 17.024 C 6.734 16.794 6.477 16.677 6.245 16.767 C 6.018 16.857 5.903 17.118 5.992 17.352 L 6.57 18.837 L 4.031 18.837 C 3.15 18.837 2.434 18.113 2.434 17.222 L 2.434 13.865 C 2.434 13.617 2.234 13.415 1.99 13.415 L 1.323 13.415 C 1.1 13.415 0.989 13.266 0.954 13.199 C 0.914 13.136 0.838 12.96 0.945 12.762 L 2.07 10.67 C 2.483 9.914 2.701 9.054 2.701 8.141 C 2.701 4.257 5.609 1.076 9.322 0.905 C 11.248 0.81 13.071 1.499 14.463 2.84 C 15.85 4.181 16.62 5.99 16.62 7.934 C 16.62 10.625 15.797 11.624 15.072 12.51 C 14.525 13.181 14.005 13.811 14.005 14.949 C 14.005 17.388 15.517 20.88 15.583 21.028 C 15.659 21.195 15.819 21.298 15.993 21.298 C 16.055 21.298 16.113 21.285 16.17 21.258 C 16.393 21.159 16.495 20.893 16.397 20.664 C 16.384 20.628 14.894 17.199 14.894 14.949 C 14.894 14.135 15.254 13.694 15.757 13.086 C 16.531 12.132 17.5 10.949 17.5 7.934 Z" fill="rgb(19, 68, 254)" height="22.49999090119622px" id="TWm8_hfQk" transform="translate(3.75 1.255)" width="17.50000033150696px"/><path d="M 7.032 5.101 L 5.113 5.101 L 5.552 0.51 C 5.571 0.297 5.444 0.103 5.24 0.029 C 5.037 -0.046 4.81 0.029 4.687 0.205 L 0.082 6.894 C -0.018 7.038 -0.027 7.219 0.058 7.371 C 0.138 7.524 0.299 7.617 0.474 7.617 L 1.935 7.617 L 0.881 11.93 C 0.829 12.139 0.933 12.352 1.127 12.449 C 1.193 12.481 1.268 12.5 1.339 12.5 C 1.472 12.5 1.604 12.444 1.699 12.338 L 7.387 5.861 C 7.505 5.722 7.534 5.532 7.458 5.366 C 7.387 5.208 7.217 5.101 7.032 5.101 Z M 2.257 10.29 L 2.994 7.265 C 3.027 7.126 2.994 6.982 2.904 6.871 C 2.815 6.76 2.678 6.695 2.531 6.695 L 1.363 6.695 L 4.437 2.234 L 4.12 5.523 C 4.106 5.653 4.153 5.782 4.243 5.88 C 4.333 5.977 4.46 6.033 4.593 6.033 L 6.002 6.033 Z" fill="rgb(19, 68, 254)" height="12.4999918716163px" id="CK7EuVtiH" transform="translate(9.375 3.13)" width="7.5000042195173515px"/></svg>