<svg display="block" role="presentation" viewBox="0 0 25 25" xmlns="http://www.w3.org/2000/svg"><path d="M 20.951 7.086 C 18.991 3.593 15.273 1.423 11.251 1.423 C 7.227 1.423 3.509 3.593 1.549 7.086 C 1.398 7.357 1.398 7.643 1.549 7.914 C 3.509 11.407 7.227 13.577 11.251 13.577 C 15.273 13.577 18.991 11.407 20.951 7.914 C 21.105 7.643 21.105 7.357 20.951 7.086 Z M 22.203 8.606 C 19.99 12.55 15.794 15 11.251 15 C 6.706 15 2.51 12.55 0.297 8.606 C -0.099 7.903 -0.099 7.097 0.297 6.393 C 2.51 2.449 6.706 0 11.251 0 C 15.794 0 19.99 2.449 22.203 6.393 C 22.599 7.097 22.599 7.903 22.203 8.606 Z M 11.251 10.42 C 12.873 10.42 14.193 9.11 14.193 7.5 C 14.193 5.89 12.873 4.58 11.251 4.58 C 9.627 4.58 8.307 5.89 8.307 7.5 C 8.307 9.11 9.627 10.42 11.251 10.42 Z M 15.627 7.5 C 15.627 9.895 13.665 11.843 11.251 11.843 C 8.835 11.843 6.873 9.895 6.873 7.5 C 6.873 5.105 8.835 3.157 11.251 3.157 C 13.665 3.157 15.627 5.105 15.627 7.5 Z" fill="rgb(19, 68, 254)" height="15px" id="g542r3xL1" transform="translate(1.25 5)" width="22.50001562500003px"/></svg>