<svg display="block" role="presentation" viewBox="0 0 25 25" xmlns="http://www.w3.org/2000/svg"><path d="M 21.835 3.464 C 16.992 3.883 13.762 5.674 13.383 5.819 C 13.229 5.878 13.071 5.881 12.922 5.838 C 10.831 5.235 8.729 5.905 7.459 7.37 C 5.674 9.43 6.404 12.09 6.436 12.202 C 6.484 12.371 6.467 12.56 6.391 12.716 C 5.084 15.417 4.996 18.629 6.298 21.472 C 6.519 21.955 6.162 22.5 5.637 22.5 C 5.361 22.5 5.097 22.343 4.975 22.076 C 3.59 19.052 3.523 15.497 4.969 12.325 C 3.829 7.099 8.342 3.199 13.052 4.37 C 15.775 3.074 18.703 2.278 21.71 2.018 C 22.11 1.983 22.463 2.279 22.497 2.678 C 22.532 3.077 22.236 3.429 21.835 3.464 Z M 17.042 20.918 C 16.813 20.785 16.594 20.634 16.39 20.468 C 15.278 19.565 14.897 18.478 14.798 18.291 C 15.143 16.099 14.881 13.9 14.151 11.921 C 14.012 11.545 13.594 11.352 13.217 11.49 C 12.84 11.629 12.647 12.046 12.786 12.422 C 13.855 15.322 13.745 18.552 12.249 21.441 C 12.065 21.797 12.205 22.235 12.561 22.419 C 12.918 22.603 13.357 22.463 13.541 22.107 C 13.837 21.536 14.087 20.948 14.291 20.346 C 14.834 21.093 15.515 21.71 16.309 22.172 C 16.656 22.374 17.101 22.257 17.304 21.911 C 17.506 21.565 17.389 21.121 17.042 20.918 Z M 1.642 11.148 L 0.506 11.511 C 0.123 11.633 -0.088 12.042 0.035 12.424 C 0.134 12.732 0.42 12.929 0.727 12.929 C 0.878 12.929 0.846 12.927 2.085 12.531 C 2.468 12.409 2.679 12 2.556 11.618 C 2.434 11.237 2.025 11.026 1.642 11.148 Z M 2.745 5.299 L 1.608 4.709 C 1.252 4.524 0.813 4.662 0.628 5.018 C 0.442 5.374 0.581 5.812 0.937 5.997 C 2.168 6.635 2.177 6.669 2.409 6.669 C 3.164 6.669 3.42 5.649 2.745 5.299 Z M 5.276 2.625 C 5.41 2.862 5.656 2.994 5.91 2.994 C 6.461 2.994 6.818 2.398 6.542 1.911 L 5.951 0.868 C 5.754 0.519 5.31 0.396 4.96 0.593 C 4.611 0.79 4.488 1.233 4.685 1.582 Z M 11.546 2.223 C 11.86 2.223 12.15 2.018 12.243 1.702 L 12.47 0.931 C 12.584 0.546 12.363 0.143 11.978 0.03 C 11.593 -0.083 11.188 0.137 11.075 0.521 L 10.848 1.292 C 10.711 1.756 11.06 2.223 11.546 2.223 Z" fill="rgb(19, 68, 254)" height="22.4999987956512px" id="ybBM326Qr" transform="translate(1.25 1.25)" width="22.500009156043053px"/></svg>