<svg display="block" role="presentation" viewBox="0 0 25 25" xmlns="http://www.w3.org/2000/svg"><path d="M 4.431 4.862 C 4.49 4.922 4.568 4.952 4.646 4.952 C 4.725 4.952 4.803 4.922 4.862 4.862 C 4.981 4.743 4.981 4.55 4.862 4.431 L 0.521 0.089 C 0.402 -0.03 0.209 -0.03 0.089 0.089 C -0.03 0.209 -0.03 0.402 0.089 0.521 Z" fill="rgb(19, 68, 254)" height="4.951659375px" id="ekK7Mn4aI" transform="translate(3.927 2.087)" width="4.951701562499977px"/><path d="M 6.78 7.211 C 7.133 7.564 7.279 8.071 7.16 8.533 C 7.035 9.024 7.183 9.546 7.547 9.898 C 7.819 10.159 8.171 10.292 8.524 10.292 C 8.839 10.292 9.155 10.186 9.415 9.972 C 9.772 9.678 9.958 9.242 9.926 8.789 C 10.38 8.82 10.814 8.635 11.108 8.279 C 11.562 7.73 11.532 6.927 11.037 6.412 C 10.685 6.045 10.161 5.896 9.668 6.023 C 9.208 6.142 8.703 5.996 8.349 5.642 L 7.56 4.853 C 7.44 4.734 7.247 4.734 7.128 4.853 C 7.009 4.972 7.009 5.165 7.128 5.285 L 7.917 6.074 C 8.423 6.58 9.153 6.787 9.821 6.614 C 10.104 6.541 10.394 6.623 10.597 6.834 C 10.872 7.121 10.89 7.585 10.638 7.89 C 10.456 8.11 10.18 8.215 9.899 8.172 C 9.737 8.147 9.572 8.202 9.455 8.318 C 9.339 8.434 9.285 8.6 9.31 8.762 C 9.353 9.043 9.247 9.319 9.027 9.501 C 8.721 9.753 8.257 9.734 7.971 9.458 C 7.761 9.256 7.679 8.967 7.752 8.685 C 7.923 8.015 7.716 7.285 7.212 6.78 L 0.521 0.089 C 0.402 -0.03 0.209 -0.03 0.089 0.089 C -0.03 0.209 -0.03 0.402 0.089 0.521 Z" fill="rgb(19, 68, 254)" height="10.291895312500001px" id="KUhh5jIL_" transform="translate(2.092 2.527)" width="11.429381801422853px"/><path d="M 6.298 1.175 C 6.201 0.69 5.866 0.29 5.404 0.105 C 4.949 -0.077 4.44 -0.02 4.042 0.259 L 4.017 0.277 C 3.772 0.454 3.592 0.697 3.495 0.981 C 2.852 2.877 1.596 3.81 0.656 4.259 C 0.185 4.484 -0.067 4.965 0.015 5.485 C 0.096 5.997 0.477 6.372 0.986 6.441 C 1.109 6.457 1.705 6.459 1.81 6.451 C 1.941 6.442 2.064 6.485 2.157 6.573 C 2.245 6.655 2.294 6.768 2.294 6.889 L 2.294 12.49 C 2.294 12.658 2.431 12.795 2.599 12.795 C 2.768 12.795 2.905 12.658 2.905 12.49 L 2.905 6.889 C 2.905 6.597 2.787 6.326 2.573 6.127 C 2.358 5.926 2.066 5.822 1.769 5.842 C 1.679 5.849 1.15 5.845 1.067 5.836 C 0.782 5.798 0.648 5.581 0.618 5.391 C 0.587 5.194 0.65 4.938 0.919 4.81 C 1.965 4.31 3.362 3.274 4.073 1.177 C 4.128 1.016 4.235 0.873 4.374 0.772 L 4.393 0.759 C 4.625 0.596 4.91 0.565 5.177 0.672 C 5.448 0.78 5.643 1.013 5.7 1.296 C 5.913 2.357 5.444 3.521 4.506 4.26 C 4.25 4.462 4.104 4.763 4.104 5.087 L 4.104 12.49 C 4.104 12.658 4.24 12.795 4.409 12.795 C 4.577 12.795 4.714 12.658 4.714 12.49 L 4.714 5.087 C 4.714 4.951 4.776 4.825 4.884 4.74 C 6.001 3.859 6.556 2.46 6.298 1.175 Z" fill="rgb(19, 68, 254)" height="12.794990232235222px" id="O8gWmPv7d" transform="translate(10.293 10.12)" width="6.3604992783169525px"/><path d="M 0.603 0.236 C 0.565 0.072 0.401 -0.03 0.236 0.008 C 0.072 0.046 -0.03 0.21 0.008 0.374 C 0.321 1.728 0.497 3.286 0.53 5.004 C 0.533 5.171 0.669 5.303 0.835 5.303 C 0.837 5.303 0.839 5.303 0.84 5.303 C 1.009 5.3 1.143 5.161 1.14 4.992 C 1.106 3.232 0.925 1.631 0.603 0.236 Z" fill="rgb(19, 68, 254)" height="5.303366096734614px" id="v_XxZnjfV" transform="translate(9.491 17.615)" width="1.1398163449176257px"/><path d="M 7.692 10.254 C 6.916 7.807 5.621 6.101 3.843 5.183 C 2.51 4.494 1.561 3.468 1.023 2.132 C 0.621 1.134 0.611 0.323 0.61 0.305 C 0.61 0.136 0.474 0 0.305 0 C 0.137 0 0 0.137 0 0.305 C 0 0.342 0.005 1.225 0.446 2.334 C 0.853 3.357 1.724 4.775 3.563 5.725 C 5.192 6.566 6.385 8.152 7.11 10.438 C 7.151 10.568 7.272 10.651 7.401 10.651 C 7.432 10.651 7.463 10.647 7.493 10.637 C 7.654 10.586 7.743 10.415 7.692 10.254 Z" fill="rgb(19, 68, 254)" height="10.651499999999999px" id="H_EfpFwFL" transform="translate(2.084 6.428)" width="7.70630396988547px"/><path d="M 3.66 1.092 L 3.048 1.092 L 3.048 0.48 C 3.048 0.215 2.833 0 2.568 0 L 1.572 0 C 1.308 0 1.092 0.215 1.092 0.48 L 1.092 1.092 L 0.48 1.092 C 0.215 1.092 0 1.308 0 1.572 L 0 2.568 C 0 2.833 0.215 3.048 0.48 3.048 L 1.092 3.048 L 1.092 3.66 C 1.092 3.925 1.308 4.14 1.572 4.14 L 2.568 4.14 C 2.833 4.14 3.048 3.925 3.048 3.66 L 3.048 3.048 L 3.66 3.048 C 3.925 3.048 4.14 2.833 4.14 2.568 L 4.14 1.572 C 4.14 1.308 3.925 1.092 3.66 1.092 Z M 3.53 2.438 L 2.918 2.438 C 2.653 2.438 2.438 2.653 2.438 2.918 L 2.438 3.53 L 1.703 3.53 L 1.703 2.918 C 1.703 2.653 1.487 2.438 1.222 2.438 L 0.61 2.438 L 0.61 1.702 L 1.222 1.702 C 1.487 1.702 1.703 1.487 1.703 1.222 L 1.703 0.61 L 2.438 0.61 L 2.438 1.222 C 2.438 1.487 2.653 1.702 2.918 1.702 L 3.53 1.702 Z" fill="rgb(19, 68, 254)" height="4.1403125px" id="f183M4pPW" transform="translate(17.541 15.923)" width="4.140312500000007px"/><path d="M 10.102 12.605 C 9.65 12.605 9.219 12.696 8.826 12.861 L 8.826 10.862 C 8.826 9.056 8.351 7.274 7.451 5.709 C 6.551 4.143 5.251 2.835 3.691 1.926 L 0.459 0.042 C 0.313 -0.043 0.126 0.006 0.042 0.152 C -0.043 0.297 0.006 0.484 0.152 0.569 L 3.384 2.453 C 4.852 3.309 6.075 4.54 6.922 6.013 C 7.768 7.486 8.216 9.163 8.216 10.862 L 8.216 13.197 C 7.358 13.795 6.795 14.789 6.795 15.912 C 6.795 17.035 7.358 18.029 8.216 18.627 L 8.216 20.528 C 8.216 20.697 8.352 20.833 8.521 20.833 C 8.689 20.833 8.826 20.697 8.826 20.528 L 8.826 18.963 C 9.219 19.128 9.65 19.219 10.102 19.219 C 10.662 19.219 11.216 19.076 11.703 18.806 C 11.851 18.724 11.904 18.538 11.822 18.391 C 11.74 18.243 11.555 18.19 11.407 18.272 C 11.01 18.492 10.558 18.609 10.102 18.609 C 8.615 18.609 7.405 17.399 7.405 15.912 C 7.405 14.425 8.615 13.216 10.102 13.216 C 11.589 13.216 12.798 14.425 12.798 15.912 C 12.798 16.512 12.606 17.079 12.24 17.554 C 12.138 17.688 12.163 17.879 12.296 17.982 C 12.43 18.085 12.621 18.06 12.724 17.926 C 13.172 17.344 13.409 16.647 13.409 15.912 C 13.409 14.089 11.925 12.605 10.102 12.605 Z" fill="rgb(19, 68, 254)" height="20.833480030753325px" id="NDtja_E57" transform="translate(9.509 2.083)" width="13.408831648230954px"/></svg>