<svg display="block" role="presentation" viewBox="0 0 25 25" xmlns="http://www.w3.org/2000/svg"><path d="M 9.403 2.34 C 9.403 2.339 9.403 2.339 9.403 2.338 C 9.336 1.875 7.139 0 5.14 0 C 2.965 0 0.95 2.678 0.386 2.734 C -0.13 2.736 -0.128 3.516 0.388 3.516 C 1.974 3.516 3.831 -1.33 7.986 1.968 C 7.494 2.091 7.149 2.405 6.969 2.891 C 5.727 1.82 3.728 2.425 3.183 3.76 C 2.992 4.234 3.707 4.529 3.906 4.055 C 4.351 3.038 6.13 2.6 6.928 4.072 C 7.584 5.28 9.692 4.319 9.403 2.34 Z M 7.616 3.701 C 7.628 2.968 7.916 2.621 8.64 2.7 C 8.615 3.682 7.803 4.039 7.616 3.701 Z" fill="rgb(19, 68, 254)" height="4.604660322142706px" id="vXgo40vFz" transform="translate(12.065 5.078)" width="9.42999191977487px"/><path d="M 13.271 7.743 C 13.282 7.757 14.445 9.119 14.445 10.938 C 14.445 14.829 11.313 21.094 9.367 21.094 C 7.984 21.094 1.478 15.795 0.837 11.586 C 8.389 14.799 5.566 2.028 12.598 1.956 C 12.876 1.955 13.663 1.953 14.087 1.953 C 14.391 1.953 14.901 2.105 14.901 3.125 C 14.901 3.642 15.682 3.642 15.682 3.125 C 15.682 1.684 14.823 1.172 14.087 1.172 C 13.619 1.172 12.932 1.174 12.494 1.175 L 12.494 1.181 C 10.732 1.226 9.503 1.988 8.586 3.066 L 8.586 1.96 C 8.596 1.401 8.104 0.781 7.023 0.781 C 6.571 0.781 6.212 0.89 5.943 1.098 C 5.697 0.654 5.046 0 4.464 0 C 3.182 0 1.934 1.51 2.691 2.526 C 3.279 3.316 3.443 4.109 3.489 4.477 C 2.682 4.987 0 6.979 0 10.938 C 0 15.62 7.418 21.875 9.367 21.875 C 12.122 21.875 15.226 14.74 15.226 10.938 C 15.226 8.83 13.917 7.296 13.861 7.231 C 13.522 6.84 12.933 7.353 13.271 7.743 Z M 6.447 7.045 C 6.075 6.007 5.375 4.596 4.26 4.339 C 4.211 3.971 4.075 3.353 3.709 2.675 C 4.456 2.512 4.93 2.031 5.164 1.326 C 5.525 1.802 5.473 2.38 5.461 3.906 C 5.461 4.423 6.242 4.423 6.242 3.906 L 6.242 2.74 C 6.798 2.888 7.322 2.845 7.804 2.641 L 7.804 4.155 C 7.25 5.071 6.829 6.089 6.447 7.045 Z M 7.739 1.795 C 7.136 2.161 6.566 2.043 6.265 1.93 C 6.442 1.421 7.505 1.487 7.739 1.795 Z M 4.498 0.787 C 4.379 1.492 3.989 1.917 3.26 1.949 C 3.129 1.566 3.8 0.717 4.498 0.787 Z M 3.992 5.084 C 5.02 5.206 5.757 7.302 5.982 8.199 C 4.813 11.021 3.813 12.197 0.792 10.706 C 0.901 7.122 3.462 5.4 3.992 5.084 Z" fill="rgb(19, 68, 254)" height="21.875px" id="OmcHXTOZo" transform="translate(3.511 1.563)" width="15.682006250000029px"/><path d="M 5.859 0.388 L 5.859 2.628 L 4.399 5.183 L 2.745 6.175 L 1.779 5.531 C 1.678 5.465 1.553 5.448 1.439 5.486 L 0.267 5.876 C -0.225 6.04 0.026 6.782 0.514 6.617 L 1.505 6.287 L 2.289 6.81 L 1.965 8.105 C 1.84 8.606 2.597 8.797 2.723 8.295 L 3.074 6.89 L 4.297 6.156 L 4.297 10.153 C 4.297 10.67 5.078 10.67 5.078 10.153 L 5.078 7.971 L 6.365 9.257 C 6.726 9.623 7.283 9.072 6.916 8.705 L 5.078 6.866 L 5.078 5.57 L 6.405 3.246 L 7.371 3.729 L 7.039 5.389 C 6.937 5.898 7.703 6.054 7.804 5.543 L 8.052 4.305 L 8.708 4.961 C 9.074 5.326 9.625 4.774 9.26 4.408 L 8.088 3.236 C 7.921 3.113 7.27 2.814 6.64 2.49 L 6.64 0.388 C 6.64 -0.129 5.859 -0.129 5.859 0.388 Z" fill="rgb(19, 68, 254)" height="10.540796874999998px" id="umAR9Mcrc" transform="translate(7.407 9.38)" width="9.380013168875777px"/></svg>