<svg display="block" role="presentation" viewBox="0 0 25 25" xmlns="http://www.w3.org/2000/svg"><path d="M 15.704 0.403 C 15.687 0.245 15.557 0.115 15.399 0.098 C 14.055 -0.063 12.717 -0.025 11.422 0.21 C 8.714 0.675 6.036 2.148 3.96 4.157 C 3.769 4.34 3.311 4.772 3.127 4.949 C 2.034 6.214 0.775 7.889 0.042 9.306 C -0.063 9.521 0.041 9.684 0.221 9.839 C 0.389 10.007 0.711 10.326 1.121 10.737 C 2.687 12.308 4.397 14.019 5.974 15.598 L 6.093 15.718 C 6.259 15.888 6.496 15.811 6.667 15.69 C 7.483 15.234 8.6 14.54 9.776 13.586 C 13.746 10.474 16.406 5.515 15.704 0.403 Z M 11.149 8.64 C 9.42 10.41 6.32 9.128 6.348 6.649 C 6.325 4.168 9.409 2.888 11.149 4.658 C 12.248 5.755 12.248 7.543 11.149 8.64 Z" fill="rgb(255, 255, 255)" height="15.816335835366516px" id="EToPlBJ1C" transform="translate(6.633 2.806)" width="15.816328772947593px"/><path d="M 0.349 6.122 C 0.363 6.122 0.377 6.122 0.391 6.119 L 2.904 5.821 C 2.717 5.474 2.782 5.055 3.002 4.73 C 3.177 4.415 3.465 3.932 3.864 3.34 C 4.527 2.331 5.344 1.367 6.128 0.469 L 6.633 0 C 2.433 -0.04 0.283 3.565 0.006 5.729 C -0.034 5.927 0.14 6.129 0.349 6.122 Z" fill="rgb(255, 255, 255)" height="6.122487366139006px" id="W5PVNyqnA" transform="translate(3.061 6.888)" width="6.632654428064057px"/><path d="M 4.542 1.344 C 3.567 2.09 2.514 2.762 1.406 3.347 C 1.09 3.551 0.65 3.623 0.301 3.444 C 0.301 3.444 0.003 5.761 0.003 5.761 C -0.026 5.945 0.142 6.127 0.342 6.122 C 0.988 6.033 3.899 5.481 5.393 2.837 C 5.862 2.007 6.136 0.893 6.122 0 C 5.624 0.471 5.108 0.911 4.542 1.344 Z" fill="rgb(255, 255, 255)" height="6.122431970544028px" id="O9kZOQMQP" transform="translate(12.245 15.561)" width="6.122415950675228px"/><path d="M 3.253 3.363 C 2.315 2.288 1.235 1.056 0.313 0 L 0.099 0.496 C -0.081 0.91 -0.012 1.41 0.275 1.737 L 2.051 3.766 C 2.339 4.093 2.777 4.176 3.137 3.967 L 3.571 3.723 C 3.466 3.603 3.364 3.484 3.253 3.363 Z" fill="rgb(255, 255, 255)" height="4.081610937284157px" id="VjAzrAu6M" transform="translate(7.143 14.03)" width="3.5714297990330985px"/><path d="M 4.984 0.585 C 2.36 -1.538 0.039 2.648 0.001 4.735 C -0.018 4.933 0.184 5.118 0.404 5.101 C 2.692 5.066 7.286 2.968 4.984 0.585 Z" fill="rgb(255, 255, 255)" height="5.1020462948759455px" id="vbHBCfZic" transform="translate(2.551 17.092)" width="5.612254466043922px"/><path d="M 2.041 0 C -0.672 0.07 -0.689 4.004 2.041 4.082 C 4.771 4.002 4.753 0.07 2.041 0 Z" fill="rgb(255, 255, 255)" height="4.081632653061224px" id="TNeV459VX" transform="translate(13.775 7.398)" width="4.0816365597579605px"/></svg>