<svg display="block" role="presentation" viewBox="0 0 25 25" xmlns="http://www.w3.org/2000/svg"><path d="M 3.396 0.784 L 2.547 1.633 L 2.482 1.698 L 3.396 2.612 L 2.612 3.396 L 1.698 2.482 L 1.633 2.547 L 0.784 3.396 L 0 2.612 L 0.849 1.763 L 0.914 1.698 L 0 0.784 L 0.784 0 L 1.698 0.914 L 1.763 0.849 L 2.612 0 Z" fill="rgb(255, 255, 255)" height="3.3956985294117636px" id="tF6IX6szF" stroke-dasharray="" stroke-linecap="butt" stroke-linejoin="miter" stroke-miterlimit="10" stroke-width="0.18" stroke="rgb(19, 68, 254)" transform="translate(6.689 14.916)" width="3.395698529411776px"/><path d="M 9.9 2.052 C 12.636 -0.684 17.087 -0.684 19.823 2.052 C 22.559 4.788 22.559 9.239 19.823 11.975 L 11.975 19.823 C 10.607 21.191 8.811 21.875 7.014 21.875 C 5.217 21.875 3.42 21.191 2.052 19.823 C -0.684 17.087 -0.684 12.635 2.052 9.9 L 2.052 9.9 L 4.417 7.537 Z M 7.797 5.723 L 2.836 10.684 C 0.532 12.987 0.532 16.735 2.836 19.039 C 3.988 20.191 5.501 20.767 7.014 20.767 C 8.527 20.767 10.04 20.191 11.191 19.039 L 14.078 16.153 L 9.9 11.975 C 8.224 10.299 7.575 7.979 7.953 5.803 L 8.002 5.517 Z M 19.039 2.836 C 16.735 0.532 12.987 0.532 10.684 2.836 C 8.38 5.14 8.38 8.888 10.684 11.191 L 14.861 15.369 L 19.039 11.191 C 21.343 8.888 21.343 5.14 19.039 2.836 Z" fill="rgb(255, 255, 255)" height="21.87499724275915px" id="rDEPB4vYd" stroke-dasharray="" stroke-linecap="butt" stroke-linejoin="miter" stroke-miterlimit="10" stroke-width="0.18" stroke="rgb(19, 68, 254)" transform="translate(1.562 1.563)" width="21.87506894118455px"/><path d="M 4.43 0 C 5.614 0 6.726 0.461 7.564 1.298 L 7.564 1.298 C 8.401 2.135 8.861 3.248 8.861 4.432 C 8.861 5.616 8.401 6.729 7.564 7.566 C 6.7 8.43 5.565 8.862 4.43 8.862 C 3.294 8.862 2.16 8.43 1.296 7.566 C -0.432 5.838 -0.432 3.026 1.296 1.298 L 1.296 1.298 C 2.133 0.461 3.246 0 4.43 0 Z M 4.43 1.109 C 3.542 1.109 2.707 1.454 2.08 2.082 C 0.784 3.378 0.784 5.486 2.08 6.782 C 2.728 7.43 3.579 7.754 4.43 7.754 C 5.28 7.754 6.131 7.43 6.779 6.782 C 7.407 6.154 7.753 5.319 7.753 4.432 C 7.753 3.544 7.407 2.71 6.779 2.082 C 6.152 1.454 5.317 1.109 4.43 1.109 Z" fill="rgb(255, 255, 255)" height="8.861617647058825px" id="xRRktW7iS" stroke-dasharray="" stroke-linecap="butt" stroke-linejoin="miter" stroke-miterlimit="10" stroke-width="0.18" stroke="rgb(19, 68, 254)" transform="translate(11.994 4.145)" width="8.861443014705891px"/><path d="M 0.784 0 L 1.567 0.784 L 0.784 1.567 L 0 0.784 Z" fill="rgb(255, 255, 255)" height="1.567389705882352px" id="UlTKnHqPK" stroke-dasharray="" stroke-linecap="butt" stroke-linejoin="miter" stroke-miterlimit="10" stroke-width="0.18" stroke="rgb(19, 68, 254)" transform="translate(16.552 8.707)" width="1.5674264705882557px"/><path d="M 0.784 0 L 1.567 0.784 L 0.784 1.567 L 0 0.784 Z" fill="rgb(255, 255, 255)" height="1.5674264705882361px" id="pB4drRjnL" stroke-dasharray="" stroke-linecap="butt" stroke-linejoin="miter" stroke-miterlimit="10" stroke-width="0.18" stroke="rgb(19, 68, 254)" transform="translate(14.724 6.879)" width="1.5673897058823805px"/></svg>