<svg display="block" role="presentation" viewBox="0 0 25 25" xmlns="http://www.w3.org/2000/svg"><g d="M 0 25 L 0 0 L 25 0 L 25 25 Z M 18.844 13.275 C 19.472 13.108 19.955 12.636 20.138 12.013 C 20.323 11.382 20.417 10.706 20.417 10.003 C 20.417 8.094 19.414 6.844 18.816 6.269 C 18.453 5.92 17.915 5.82 17.442 6.014 C 16.98 6.205 16.689 6.631 16.657 7.098 C 16.09 6.675 15.474 6.504 15.175 6.444 C 14.264 6.267 13.457 5.826 12.844 5.17 C 11.898 4.145 10.062 1.529 9.316 0.452 C 9.005 0.002 8.388 -0.132 7.913 0.148 L 5.52 1.559 C 5.044 1.839 4.865 2.441 5.112 2.93 C 6.41 5.511 7.26 7.359 7.568 8.273 C 7.853 9.115 7.854 10.029 7.572 10.919 C 7.238 11.981 7.451 13.086 8.132 13.951 C 7.848 14.254 7.645 14.618 7.561 15 C 7.377 15.796 7.443 16.609 7.746 17.285 C 8.825 19.721 8.813 22.717 8.757 23.892 C 8.744 24.181 8.846 24.455 9.045 24.664 C 9.245 24.875 9.517 24.991 9.808 24.991 L 13.074 25.001 L 13.077 25.001 C 13.599 25.001 14.037 24.628 14.119 24.113 L 14.736 20.221 C 14.9 19.183 15.398 18.233 16.142 17.543 C 17.271 16.495 17.87 15.361 17.873 14.265 C 17.875 13.881 17.834 13.54 17.769 13.233 C 17.96 13.299 18.159 13.339 18.363 13.339 C 18.522 13.339 18.684 13.318 18.843 13.276 Z M 17.76 6.784 C 17.925 6.716 18.113 6.749 18.238 6.87 C 18.74 7.353 19.583 8.403 19.583 10.003 C 19.583 10.627 19.501 11.224 19.338 11.779 C 19.238 12.12 18.973 12.378 18.629 12.47 C 18.287 12.561 17.929 12.47 17.673 12.225 C 17.393 11.956 17.334 11.533 17.523 11.147 L 17.52 11.146 C 17.741 10.695 17.863 10.194 17.863 9.68 C 17.863 8.687 17.669 7.843 17.506 7.31 C 17.441 7.097 17.55 6.871 17.76 6.784 Z M 5.856 2.554 C 5.806 2.455 5.843 2.336 5.942 2.277 L 8.336 0.866 C 8.374 0.843 8.414 0.833 8.453 0.833 C 8.522 0.833 8.589 0.866 8.631 0.926 C 9.387 2.018 11.25 4.671 12.233 5.737 C 12.97 6.523 13.932 7.051 15.014 7.261 C 15.767 7.413 17.03 7.928 17.03 9.68 C 17.03 10.353 16.76 10.999 16.288 11.452 C 15.774 11.942 15.106 12.196 14.42 12.167 C 13.798 12.157 13.257 12.476 12.988 13.017 C 12.682 13.626 12.138 14.078 11.46 14.289 C 10.597 14.552 9.636 14.316 9.01 13.688 C 8.325 13.009 8.085 12.066 8.367 11.169 C 8.703 10.111 8.7 9.018 8.358 8.007 C 7.953 6.806 6.774 4.379 5.856 2.554 Z M 9.649 24.089 C 9.625 24.064 9.587 24.011 9.59 23.931 C 9.647 22.716 9.656 19.648 8.56 17.074 C 8.922 16.8 9.316 16.658 9.761 16.658 L 9.767 16.658 C 10.403 16.66 10.872 16.875 11.162 17.297 C 11.465 17.74 11.487 18.269 11.487 18.421 C 11.486 18.918 11.335 19.388 11.145 19.983 C 10.853 20.895 10.465 22.132 10.41 24.159 L 9.811 24.158 C 9.727 24.158 9.674 24.114 9.649 24.089 Z M 15.576 16.933 C 14.697 17.748 14.106 18.87 13.914 20.091 L 13.297 23.983 C 13.28 24.09 13.188 24.167 13.078 24.167 L 11.244 24.161 C 11.296 22.269 11.648 21.144 11.939 20.237 C 12.143 19.6 12.32 19.049 12.321 18.423 C 12.322 18.151 12.278 17.449 11.85 16.826 C 11.538 16.371 10.924 15.827 9.77 15.824 L 9.762 15.824 C 9.241 15.824 8.759 15.961 8.32 16.226 C 8.28 15.891 8.293 15.538 8.375 15.182 C 8.425 14.955 8.552 14.731 8.725 14.54 C 9.3 14.985 10.019 15.226 10.75 15.226 C 11.07 15.226 11.393 15.181 11.705 15.086 C 12.605 14.806 13.325 14.204 13.735 13.389 C 13.86 13.137 14.12 12.994 14.39 12.999 C 15.162 13.034 15.899 12.798 16.518 12.341 C 16.793 12.749 17.045 13.365 17.042 14.262 C 17.039 15.348 16.244 16.314 15.577 16.932 Z" fill="transparent" height="25.000551470564px" id="xMlcP6xQQ" width="25px"><path d="M 0 25 L 0 0 L 25 0 L 25 25 Z" fill="transparent" height="25px" id="ypGTXoRiF" width="25px"/><path d="M 13.843 13.273 C 14.47 13.105 14.954 12.634 15.137 12.011 C 15.322 11.38 15.415 10.704 15.415 10.001 C 15.415 8.092 14.412 6.842 13.815 6.267 C 13.452 5.918 12.913 5.818 12.441 6.012 C 11.979 6.203 11.687 6.629 11.656 7.096 C 11.089 6.673 10.473 6.502 10.174 6.442 C 9.263 6.265 8.456 5.823 7.842 5.168 C 6.897 4.143 5.061 1.527 4.315 0.45 C 4.003 0 3.387 -0.134 2.912 0.146 L 0.518 1.557 C 0.043 1.837 -0.136 2.439 0.11 2.928 C 1.409 5.509 2.259 7.357 2.567 8.271 C 2.852 9.113 2.853 10.027 2.57 10.917 C 2.237 11.979 2.45 13.084 3.13 13.949 C 2.847 14.252 2.644 14.616 2.56 14.998 C 2.376 15.794 2.442 16.607 2.745 17.283 C 3.824 19.718 3.812 22.715 3.756 23.89 C 3.743 24.178 3.845 24.453 4.044 24.662 C 4.244 24.873 4.515 24.988 4.807 24.989 L 8.072 24.998 L 8.075 24.998 C 8.598 24.998 9.036 24.626 9.118 24.111 L 9.735 20.219 C 9.898 19.181 10.397 18.231 11.141 17.541 C 12.27 16.493 12.869 15.359 12.872 14.263 C 12.873 13.879 12.833 13.538 12.767 13.23 C 12.958 13.297 13.157 13.337 13.362 13.337 C 13.521 13.337 13.683 13.316 13.842 13.273 Z M 12.759 6.782 C 12.924 6.714 13.112 6.747 13.237 6.868 C 13.739 7.351 14.582 8.4 14.582 10.001 C 14.582 10.625 14.5 11.222 14.337 11.777 C 14.237 12.118 13.972 12.376 13.628 12.468 C 13.285 12.559 12.928 12.468 12.672 12.223 C 12.392 11.954 12.333 11.531 12.522 11.145 L 12.519 11.143 C 12.74 10.693 12.862 10.192 12.862 9.678 C 12.862 8.685 12.668 7.841 12.505 7.308 C 12.44 7.095 12.549 6.868 12.759 6.782 Z M 0.855 2.552 C 0.805 2.453 0.842 2.333 0.941 2.275 L 3.335 0.863 C 3.372 0.841 3.413 0.831 3.452 0.831 C 3.521 0.831 3.588 0.863 3.63 0.924 C 4.385 2.015 6.249 4.669 7.232 5.735 C 7.969 6.521 8.931 7.048 10.012 7.259 C 10.766 7.41 12.029 7.926 12.029 9.678 C 12.029 10.351 11.758 10.997 11.287 11.45 C 10.773 11.94 10.105 12.194 9.418 12.165 C 8.797 12.155 8.255 12.474 7.987 13.015 C 7.681 13.624 7.137 14.076 6.459 14.287 C 5.596 14.55 4.635 14.313 4.009 13.686 C 3.324 13.007 3.084 12.064 3.365 11.167 C 3.702 10.109 3.698 9.015 3.357 8.005 C 2.952 6.804 1.772 4.377 0.855 2.552 Z M 4.648 24.087 C 4.624 24.062 4.586 24.008 4.589 23.929 C 4.646 22.714 4.655 19.646 3.559 17.072 C 3.921 16.798 4.315 16.656 4.76 16.656 L 4.766 16.656 C 5.402 16.658 5.871 16.873 6.161 17.295 C 6.464 17.738 6.486 18.267 6.486 18.419 C 6.485 18.916 6.334 19.386 6.143 19.981 C 5.852 20.893 5.463 22.13 5.409 24.157 L 4.81 24.155 C 4.726 24.155 4.672 24.112 4.648 24.087 Z M 10.575 16.93 C 9.695 17.746 9.105 18.868 8.913 20.089 L 8.296 23.98 C 8.279 24.088 8.187 24.165 8.077 24.165 L 6.242 24.159 C 6.295 22.267 6.647 21.142 6.938 20.235 C 7.142 19.598 7.318 19.047 7.32 18.421 C 7.321 18.148 7.277 17.447 6.849 16.823 C 6.537 16.368 5.922 15.825 4.769 15.822 L 4.76 15.822 C 4.24 15.822 3.758 15.959 3.319 16.223 C 3.279 15.888 3.292 15.535 3.374 15.18 C 3.424 14.953 3.551 14.728 3.723 14.538 C 4.299 14.983 5.018 15.224 5.749 15.224 C 6.069 15.224 6.392 15.178 6.704 15.083 C 7.603 14.803 8.324 14.202 8.734 13.387 C 8.858 13.135 9.118 12.992 9.389 12.997 C 10.161 13.032 10.897 12.796 11.517 12.339 C 11.792 12.747 12.043 13.363 12.041 14.26 C 12.037 15.346 11.242 16.312 10.576 16.93 Z" fill="rgb(255, 255, 255)" height="24.99839724694311px" id="lW4SEYD4l" transform="translate(5.001 0.002)" width="15.415355562581691px"/></g></svg>