<svg display="block" role="presentation" viewBox="0 0 25 25" xmlns="http://www.w3.org/2000/svg"><path d="M 20.468 6.282 C 20.285 6.025 15.905 0 10.331 0 C 4.757 0 0.297 6.025 0.113 6.282 C -0.038 6.492 -0.038 6.774 0.113 6.984 C 0.297 7.241 4.757 13.265 10.331 13.265 C 15.905 13.265 20.285 7.241 20.468 6.984 C 20.619 6.774 20.619 6.492 20.468 6.282 Z M 10.331 10.854 C 8.004 10.854 6.03 8.96 6.03 6.633 C 6.03 4.306 8.004 2.412 10.331 2.412 C 12.658 2.412 14.552 4.306 14.552 6.633 C 14.552 8.96 12.658 10.854 10.331 10.854 Z" fill="rgb(255, 255, 255)" height="13.265459183673471px" id="EUaFhn4U8" transform="translate(2.209 5.867)" width="20.581352040816355px"/><path d="M 1.889 0 C 0.892 0 0 0.812 0 1.809 C 0 2.807 0.892 3.618 1.889 3.618 C 2.887 3.618 3.698 2.807 3.698 1.809 C 3.698 0.812 2.887 0 1.889 0 Z" fill="rgb(255, 255, 255)" height="3.617806122448979px" id="jCkzvBz0m" transform="translate(10.651 10.691)" width="3.6982142857142453px"/></svg>