<svg display="block" role="presentation" viewBox="0 0 25 25" xmlns="http://www.w3.org/2000/svg"><path d="M 2.437 9.437 C 1.092 9.437 0 8.38 0 7.078 L 0 2.359 C 0 1.734 0.257 1.133 0.714 0.691 C 1.171 0.249 1.791 0 2.437 0 L 8.009 0 C 8.655 0 9.275 0.249 9.733 0.691 C 10.19 1.133 10.446 1.734 10.446 2.359 L 10.446 8.426 C 10.446 10.256 10.065 11.829 9.033 13.226 C 8.02 14.6 6.456 15.701 4.297 16.745 C 4.174 16.812 4.038 16.854 3.897 16.869 C 3.756 16.884 3.614 16.871 3.478 16.831 C 3.343 16.791 3.218 16.724 3.11 16.636 C 3.001 16.547 2.913 16.439 2.85 16.316 C 2.787 16.194 2.75 16.06 2.741 15.923 C 2.733 15.786 2.754 15.649 2.802 15.52 C 2.85 15.392 2.924 15.274 3.021 15.173 C 3.118 15.073 3.234 14.993 3.364 14.938 C 5.383 13.959 6.605 13.039 7.333 12.053 C 7.877 11.314 8.189 10.481 8.306 9.437 Z M 16.366 9.437 C 15.021 9.437 13.929 8.38 13.929 7.078 L 13.929 2.359 C 13.929 1.734 14.185 1.133 14.642 0.691 C 15.1 0.249 15.72 0 16.366 0 L 21.937 0 C 22.584 0 23.204 0.249 23.661 0.691 C 24.118 1.133 24.375 1.734 24.375 2.359 L 24.375 8.426 C 24.375 10.256 23.993 11.829 22.961 13.226 C 21.949 14.6 20.384 15.701 18.226 16.745 C 18.102 16.812 17.966 16.854 17.825 16.869 C 17.685 16.884 17.542 16.871 17.407 16.831 C 17.272 16.791 17.146 16.724 17.038 16.636 C 16.93 16.547 16.842 16.439 16.778 16.316 C 16.715 16.194 16.678 16.06 16.67 15.923 C 16.662 15.786 16.682 15.649 16.73 15.52 C 16.778 15.392 16.853 15.274 16.949 15.173 C 17.046 15.073 17.163 14.993 17.292 14.938 C 19.312 13.959 20.533 13.039 21.262 12.053 C 21.805 11.314 22.117 10.481 22.234 9.437 Z" fill="rgb(255, 98, 58)" height="16.87499416067565px" id="H1OmTi_nA" transform="translate(0.313 4.063)" width="24.37499966430663px"/></svg>