<svg display="block" role="presentation" viewBox="0 0 25 25" xmlns="http://www.w3.org/2000/svg"><path d="M 0.686 0.004 C 0.35 -0.032 0.046 0.2 0.005 0.533 C -0.037 0.868 0.2 1.173 0.535 1.215 C 1.363 1.318 2.173 1.611 2.941 1.935 C 3.255 2.066 3.61 1.919 3.741 1.61 C 3.871 1.299 3.726 0.941 3.415 0.81 C 2.543 0.443 1.625 0.12 0.686 0.004 Z" fill="rgb(255, 255, 255)" height="1.9829869494695676px" id="rOrfaPoyY" transform="translate(13.11 2.083)" width="3.7886746714940993px"/><path d="M 2.858 2.975 C 3.127 2.772 3.18 2.388 2.976 2.12 C 2.404 1.367 1.732 0.696 0.98 0.124 C 0.711 -0.079 0.329 -0.028 0.124 0.241 C -0.08 0.51 -0.027 0.893 0.242 1.097 C 0.906 1.601 1.499 2.193 2.003 2.858 C 2.207 3.127 2.59 3.178 2.858 2.975 Z" fill="rgb(255, 255, 255)" height="3.099408093750911px" id="eCg0HDXrV" transform="translate(17.794 4.069)" width="3.100006683516659px"/><path d="M 0.373 0.047 C 0.063 0.178 -0.083 0.536 0.048 0.847 C 0.372 1.615 0.705 2.465 0.808 3.294 C 0.848 3.618 1.141 3.864 1.489 3.824 C 1.824 3.782 2.061 3.478 2.019 3.143 C 1.902 2.204 1.54 1.245 1.173 0.373 C 1.042 0.062 0.684 -0.082 0.373 0.047 Z" fill="rgb(255, 255, 255)" height="3.828238742374506px" id="bDuniMYFm" transform="translate(20.894 8.061)" width="2.023903436175562px"/><path d="M 0.373 0.81 C 0.063 0.941 -0.083 1.299 0.048 1.61 C 0.178 1.919 0.535 2.066 0.848 1.935 C 1.616 1.611 2.425 1.318 3.254 1.215 C 3.588 1.173 3.826 0.868 3.784 0.533 C 3.742 0.2 3.436 -0.032 3.103 0.004 C 2.164 0.12 1.245 0.443 0.373 0.81 Z" fill="rgb(255, 255, 255)" height="1.9829670025459216px" id="GwANK6EFq" transform="translate(8.101 2.083)" width="3.7886783364120333px"/><path d="M 10.417 18.595 C 15.64 18.595 20.183 14.651 20.829 9.475 C 20.87 9.141 20.633 8.836 20.299 8.794 C 19.963 8.756 19.659 8.989 19.617 9.324 C 19.048 13.891 15.026 17.375 10.417 17.375 C 5.368 17.375 1.221 13.227 1.221 8.179 C 1.221 5.954 2.104 3.788 3.54 2.134 L 3.54 2.337 C 3.54 2.674 3.813 2.947 4.15 2.947 C 4.488 2.947 4.761 2.674 4.761 2.337 L 4.761 0.61 C 4.761 0.273 4.488 0 4.15 0 L 2.424 0 C 2.086 0 1.813 0.273 1.813 0.61 C 1.813 0.948 2.086 1.22 2.424 1.22 L 2.718 1.22 C 1.027 3.111 0 5.605 0 8.179 C 0 13.9 4.695 18.595 10.417 18.595 Z" fill="rgb(255, 255, 255)" height="18.595479166666667px" id="oihuMX96A" transform="translate(2.083 4.321)" width="20.833393904097726px"/><path d="M 0 7.365 C 0 11.404 3.326 14.73 7.365 14.73 C 11.404 14.73 14.73 11.404 14.73 7.365 C 14.73 3.326 11.404 0 7.365 0 C 3.326 0 0 3.326 0 7.365 Z M 7.975 4.924 C 7.975 4.586 8.248 4.313 8.586 4.313 C 8.923 4.313 9.196 4.586 9.196 4.924 L 9.196 6.755 L 10.417 6.755 L 10.417 4.924 C 10.417 4.586 10.69 4.313 11.027 4.313 C 11.364 4.313 11.637 4.586 11.637 4.924 L 11.637 9.806 C 11.637 10.144 11.364 10.417 11.027 10.417 C 10.69 10.417 10.417 10.144 10.417 9.806 L 10.417 7.975 L 8.586 7.975 C 8.248 7.975 7.975 7.702 7.975 7.365 Z M 4.924 5.534 C 4.587 5.534 4.313 5.808 4.313 6.144 C 4.313 6.482 4.04 6.755 3.703 6.755 C 3.365 6.755 3.092 6.482 3.092 6.144 C 3.092 5.135 3.914 4.313 4.924 4.313 C 5.933 4.313 6.755 5.135 6.755 6.144 C 6.755 7.365 5.942 7.974 5.289 8.463 C 4.928 8.735 4.67 8.952 4.507 9.196 L 6.144 9.196 C 6.482 9.196 6.755 9.469 6.755 9.806 C 6.755 10.144 6.482 10.417 6.144 10.417 L 3.703 10.417 C 3.365 10.417 3.092 10.144 3.092 9.806 C 3.092 8.586 3.905 7.976 4.558 7.487 C 5.181 7.019 5.534 6.726 5.534 6.144 C 5.534 5.807 5.26 5.534 4.924 5.534 Z" fill="rgb(255, 255, 255)" height="14.729906249999999px" id="wMrqXNgC8" transform="translate(5.135 5.135)" width="14.729906249999999px"/></svg>