<svg display="block" role="presentation" viewBox="0 0 25 25" xmlns="http://www.w3.org/2000/svg"><path d="M 16.478 0.657 C 16.693 1.151 16.817 1.755 16.845 2.454 C 17.567 2.619 18.107 3.266 18.107 4.037 C 18.107 4.933 17.378 5.662 16.482 5.662 C 15.586 5.662 14.857 4.933 14.857 4.037 C 14.857 3.274 15.386 2.635 16.096 2.46 C 16.064 1.766 15.898 0.71 15.219 0.188 C 14.872 0.099 14.516 0.034 14.15 0 C 14.123 1.216 10.103 4.218 10.103 4.218 C 10.103 4.218 6.081 1.217 6.054 0.001 C 5.648 0.038 5.253 0.112 4.871 0.219 C 4.375 0.611 4.119 1.343 4.106 2.406 C 4.251 2.489 4.369 2.62 4.441 2.778 C 4.975 3.031 5.447 3.561 5.808 4.316 C 5.869 4.443 5.877 4.587 5.832 4.718 C 6.049 5.275 6.173 5.884 6.173 6.396 C 6.173 7.112 6.173 7.79 5.391 7.964 C 5.307 8.034 5.201 8.073 5.089 8.073 L 4.567 8.073 C 4.306 8.073 4.093 7.859 4.093 7.599 L 4.093 7.58 C 4.103 7.328 4.314 7.124 4.567 7.124 L 5.089 7.124 C 5.143 7.124 5.195 7.133 5.246 7.15 C 5.277 7.142 5.287 7.134 5.287 7.134 C 5.346 7.031 5.346 6.602 5.346 6.396 C 5.346 5.981 5.242 5.479 5.059 5.013 C 4.965 4.959 4.888 4.878 4.841 4.779 C 4.525 4.117 4.094 3.689 3.745 3.689 C 3.387 3.689 2.935 4.152 2.62 4.839 C 2.569 4.952 2.478 5.043 2.367 5.098 C 2.203 5.544 2.112 6.003 2.112 6.396 C 2.112 6.569 2.112 7.028 2.178 7.136 C 2.179 7.136 2.194 7.145 2.235 7.155 C 2.289 7.134 2.347 7.124 2.405 7.124 L 2.928 7.124 C 3.172 7.124 3.376 7.309 3.4 7.55 L 3.403 7.579 C 3.403 7.86 3.19 8.073 2.928 8.073 L 2.405 8.073 C 2.301 8.073 2.201 8.039 2.119 7.976 C 1.82 7.919 1.609 7.788 1.476 7.573 C 1.315 7.314 1.285 6.973 1.285 6.396 C 1.285 5.889 1.402 5.306 1.615 4.749 C 1.583 4.629 1.594 4.505 1.646 4.392 C 1.867 3.909 2.149 3.494 2.459 3.194 C 2.63 3.029 2.814 2.897 3.007 2.8 C 3.078 2.632 3.204 2.494 3.356 2.406 C 3.364 1.74 3.467 1.165 3.656 0.691 C 1.487 1.791 0 4.042 0 6.641 C 0 9.963 2.427 10.125 5.604 10.125 C 5.95 10.125 6.305 10.123 6.668 10.123 L 13.535 10.123 C 13.897 10.123 14.252 10.125 14.599 10.125 C 17.776 10.125 20.204 9.963 20.204 6.641 C 20.203 4.014 18.685 1.744 16.478 0.657 Z" fill="rgb(255, 255, 255)" height="10.125000000000004px" id="O9bvABbGv" transform="translate(2.397 13.623)" width="20.203770833333344px"/><path d="M 5.56 13.248 C 8.631 13.248 11.12 8.63 11.12 5.56 C 11.12 2.489 8.631 0 5.56 0 C 2.489 0 0 2.489 0 5.56 C 0 8.63 2.489 13.248 5.56 13.248 Z" fill="rgb(255, 255, 255)" height="13.248px" id="s1ndTdXl3" transform="translate(6.942 1.249)" width="11.120041666666669px"/><path d="M 0.75 1.5 C 1.164 1.5 1.5 1.164 1.5 0.75 C 1.5 0.336 1.164 0 0.75 0 C 0.336 0 0 0.336 0 0.75 C 0 1.164 0.336 1.5 0.75 1.5 Z" fill="rgb(255, 255, 255)" height="1.5px" id="TT6K0NKnf" transform="translate(18.127 16.911)" width="1.4999999999999964px"/></svg>