<svg display="block" role="presentation" viewBox="0 0 25 25" xmlns="http://www.w3.org/2000/svg"><path d="M 20.618 0.001 L 12.982 0.001 C 11.722 0.001 10.691 1.016 10.691 2.258 L 10.691 3.01 L 7.125 3.01 L 3.665 0.452 C 2.963 -0.067 2.047 -0.142 1.268 0.242 C 0.489 0.625 0 1.4 0 2.258 L 0 3.01 C 0 3.251 0.122 3.484 0.321 3.619 L 5.086 6.974 L 3.772 9.073 C 2.726 9.284 1.932 10.194 1.932 11.285 C 1.932 12.526 2.963 13.542 4.223 13.542 C 5.483 13.542 6.514 12.526 6.514 11.285 C 6.514 11.022 6.46 10.766 6.376 10.533 L 18.472 10.533 C 18.388 10.766 18.335 11.022 18.335 11.285 C 18.335 12.526 19.366 13.542 20.626 13.542 C 21.886 13.542 22.917 12.526 22.917 11.285 C 22.917 10.307 22.275 9.479 21.389 9.164 L 21.389 7.524 L 22.153 7.524 C 22.573 7.524 22.917 7.185 22.917 6.771 L 22.917 2.258 C 22.917 1.016 21.886 0.001 20.626 0.001 Z M 12.218 2.258 C 12.218 1.844 12.562 1.506 12.982 1.506 L 20.618 1.506 C 21.038 1.506 21.382 1.844 21.382 2.258 L 21.382 3.01 L 12.218 3.01 Z M 19.854 9.028 L 5.59 9.028 L 6.529 7.524 L 19.847 7.524 L 19.847 9.028 Z" fill="rgb(255, 255, 255)" height="13.541669831059895px" id="ZqlRcb1Gm" transform="translate(1.046 10.417)" width="22.916656249999996px"/><path d="M 4.688 10.417 C 7.269 10.417 9.375 8.077 9.375 5.208 C 9.375 2.34 7.269 0 4.688 0 C 2.106 0 0 2.34 0 5.208 C 0 8.077 2.106 10.417 4.688 10.417 Z M 2.755 4.407 L 3.966 4.407 L 3.966 3.061 C 3.966 2.62 4.291 2.26 4.687 2.26 C 5.084 2.26 5.409 2.62 5.409 3.061 L 5.409 4.407 L 6.62 4.407 C 7.017 4.407 7.341 4.768 7.341 5.208 C 7.341 5.649 7.017 6.01 6.62 6.01 L 5.409 6.01 L 5.409 7.356 C 5.409 7.796 5.084 8.157 4.687 8.157 C 4.291 8.157 3.966 7.796 3.966 7.356 L 3.966 6.01 L 2.755 6.01 C 2.358 6.01 2.034 5.649 2.034 5.208 C 2.034 4.768 2.358 4.407 2.755 4.407 Z" fill="rgb(255, 255, 255)" height="10.416666666666668px" id="H2tJFTMha" transform="translate(4.171 1.042)" width="9.374989583333331px"/></svg>