<svg display="block" role="presentation" viewBox="0 0 25 25" xmlns="http://www.w3.org/2000/svg"><path d="M 13.296 1.736 C 10.98 -0.579 7.213 -0.579 4.897 1.736 L 0 6.633 L 5.559 12.192 C 6.704 11.239 8.154 10.643 9.756 10.643 C 10.675 10.643 11.549 10.834 12.345 11.174 L 13.296 10.135 C 15.611 7.82 15.611 4.052 13.296 1.736 Z" fill="rgb(255, 255, 255)" height="12.1921390625px" id="ykKVjAl8o" transform="translate(8.716 1.24)" width="15.032331249999942px"/><path d="M 12.096 5.567 L 6.529 0 L 1.736 4.797 C -0.579 7.113 -0.579 10.88 1.736 13.196 C 4.052 15.511 7.864 15.555 10.18 13.24 L 11.151 12.264 C 10.81 11.469 10.62 10.594 10.62 9.676 C 10.62 8.115 11.187 6.698 12.096 5.567 Z" fill="rgb(255, 255, 255)" height="14.954572885942255px" id="Dig_eJuiz" transform="translate(1.255 8.809)" width="12.096243750000077px"/><path d="M 0 5.212 C 0 7.902 2.019 10.097 4.619 10.425 L 4.619 0 C 2.019 0.328 0 2.523 0 5.212 Z" fill="rgb(255, 255, 255)" height="10.424875px" id="dCIzcX7yr" transform="translate(13.193 13.272)" width="4.619124999999968px"/><path d="M 0 0 L 0 10.425 C 2.601 10.097 4.619 7.902 4.619 5.212 C 4.619 2.523 2.601 0.328 0 0 Z" fill="rgb(255, 255, 255)" height="10.424875px" id="kv9MSNCw7" transform="translate(19.131 13.272)" width="4.619124999999968px"/></svg>