<svg xmlns="http://www.w3.org/2000/svg" width="1168" height="1060" fill="none"><g clip-path="url(#a)"><path fill="url(#b)" d="M0 0h1168v1028c0 17.67-14.33 32-32 32H32c-17.673 0-32-14.33-32-32V0Z"/><path stroke="url(#c)" stroke-opacity=".1" stroke-width="80" d="M0 285c55.179 212.764 179.185 374.321 579.216 406.356C979.5 723.412 1146.84 950.528 1168 1060"/><path stroke="url(#d)" stroke-opacity=".1" stroke-width="80" d="M1168 285c-55.18 212.764-179.185 374.321-579.216 406.356C188.5 723.412 21.157 950.528 0 1060"/></g><defs><linearGradient id="b" x1="584" x2="584" y1="0" y2="1060" gradientUnits="userSpaceOnUse"><stop stop-color="#fff" stop-opacity="0"/><stop offset=".247" stop-color="#BCCAFF" stop-opacity=".3"/><stop offset=".397" stop-color="#9DB1FF" stop-opacity=".5"/><stop offset=".6" stop-color="#6182FE" stop-opacity=".8"/><stop offset="1" stop-color="#1344FE"/></linearGradient><linearGradient id="c" x1="0" x2="468.082" y1="285" y2="662.355" gradientUnits="userSpaceOnUse"><stop stop-color="#fff" stop-opacity="0"/><stop offset=".333" stop-color="#fff"/></linearGradient><linearGradient id="d" x1="1168" x2="699.918" y1="285" y2="662.355" gradientUnits="userSpaceOnUse"><stop stop-color="#fff" stop-opacity="0"/><stop offset=".333" stop-color="#fff"/></linearGradient><clipPath id="a"><path fill="#fff" d="M0 0h1168v1060H0z"/></clipPath></defs></svg>