<svg display="block" role="presentation" viewBox="0 0 25 25" xmlns="http://www.w3.org/2000/svg"><g d="M 0 24 L 0 0 L 24 0 L 24 24 Z M 13.855 24 L 13.855 13.053 L 17.528 13.053 L 18.079 8.786 L 13.855 8.786 L 13.855 6.062 C 13.855 4.827 14.197 3.985 15.97 3.985 L 18.228 3.984 L 18.228 0.167 C 17.838 0.116 16.497 0 14.937 0 C 11.68 0 9.45 1.988 9.45 5.639 L 9.45 8.786 L 5.766 8.786 L 5.766 13.053 L 9.45 13.053 L 9.45 24 Z" fill="transparent" height="24.000018999999998px" id="kfgFcwc6l" transform="translate(0.336 0.801)" width="24px"><path d="M 0 24 L 0 0 L 24 0 L 24 24 Z" fill="transparent" height="24px" id="J66aeAXz0" width="24px"/><path d="M 8.09 24 L 8.09 13.053 L 11.763 13.053 L 12.314 8.786 L 8.09 8.786 L 8.09 6.062 C 8.09 4.827 8.431 3.985 10.205 3.985 L 12.462 3.984 L 12.462 0.167 C 12.072 0.116 10.732 0 9.172 0 C 5.914 0 3.684 1.988 3.684 5.639 L 3.684 8.786 L 0 8.786 L 0 13.053 L 3.684 13.053 L 3.684 24 Z" fill="rgb(19, 68, 254)" height="24.000018999999998px" id="TiO8wvO_i" transform="translate(5.766 0)" width="12.46244px"/></g></svg>