<svg display="block" role="presentation" viewBox="0 0 25 25" xmlns="http://www.w3.org/2000/svg"><path d="M 13.695 0 C 15.329 0 16.694 1.174 16.99 2.723 L 17.003 2.789 L 17.068 2.797 C 19.388 3.1 21.186 5.09 21.186 7.491 C 21.186 8.031 20.968 8.521 20.615 8.878 L 20.544 8.951 L 20.623 9.015 C 21.386 9.63 21.875 10.573 21.875 11.627 C 21.875 12.867 21.198 13.954 20.193 14.534 L 20.108 14.583 L 20.162 14.665 C 20.373 14.979 20.496 15.357 20.496 15.763 C 20.496 16.639 19.923 17.384 19.131 17.642 L 19.078 17.66 L 19.069 17.714 C 18.826 19.119 17.705 20.229 16.294 20.454 L 16.245 20.462 L 16.225 20.507 C 15.872 21.282 14.865 21.875 13.695 21.875 C 12.669 21.875 11.644 21.529 11.004 20.867 L 10.938 20.799 L 10.871 20.867 C 10.231 21.529 9.206 21.875 8.18 21.875 C 7.011 21.875 6.003 21.282 5.65 20.507 L 5.63 20.462 L 5.581 20.454 L 5.45 20.431 C 4.101 20.159 3.041 19.076 2.806 17.714 L 2.797 17.66 L 2.744 17.642 L 2.67 17.617 C 1.917 17.338 1.379 16.612 1.379 15.763 C 1.379 15.357 1.502 14.979 1.713 14.665 L 1.767 14.583 L 1.682 14.534 C 0.677 13.954 0 12.867 0 11.627 C 0 10.573 0.489 9.63 1.252 9.015 L 1.331 8.951 L 1.26 8.878 C 0.907 8.521 0.689 8.031 0.689 7.491 C 0.689 5.09 2.487 3.1 4.807 2.797 L 4.872 2.789 L 4.885 2.723 C 5.181 1.174 6.546 0 8.18 0 C 9.276 0 10.251 0.528 10.864 1.344 L 10.938 1.442 L 11.011 1.344 C 11.624 0.528 12.599 0 13.695 0 Z M 8.18 1.195 C 7.204 1.195 6.387 1.849 6.12 2.738 L 6.092 2.831 L 6.188 2.854 C 7.669 3.202 8.778 4.527 8.778 6.112 C 8.778 6.442 8.51 6.71 8.18 6.71 C 7.85 6.71 7.583 6.442 7.583 6.112 C 7.583 4.921 6.614 3.952 5.423 3.952 C 3.472 3.952 1.884 5.54 1.884 7.491 C 1.884 7.922 2.235 8.272 2.665 8.272 L 3.355 8.272 C 3.685 8.272 3.952 8.54 3.952 8.869 C 3.952 9.199 3.685 9.467 3.355 9.467 C 2.164 9.467 1.195 10.436 1.195 11.627 C 1.195 12.818 2.164 13.787 3.355 13.787 C 4.546 13.787 5.515 12.818 5.515 11.627 C 5.515 11.297 5.782 11.029 6.112 11.029 C 6.442 11.029 6.71 11.297 6.71 11.627 C 6.71 13.476 5.204 14.982 3.355 14.982 C 2.924 14.982 2.574 15.332 2.574 15.763 C 2.574 16.194 2.924 16.544 3.355 16.544 C 3.685 16.544 3.952 16.812 3.952 17.142 C 3.952 18.128 4.62 18.952 5.523 19.21 L 5.61 19.235 L 5.636 19.147 C 5.963 18.044 6.974 17.233 8.18 17.233 C 8.51 17.233 8.778 17.501 8.778 17.831 C 8.778 18.161 8.51 18.428 8.18 18.428 C 7.369 18.428 6.71 19.088 6.71 19.899 C 6.71 19.984 6.761 20.074 6.828 20.153 C 6.899 20.235 7 20.321 7.126 20.399 C 7.379 20.554 7.741 20.68 8.18 20.68 C 8.547 20.68 9.079 20.607 9.523 20.39 C 9.969 20.173 10.34 19.803 10.34 19.21 L 10.34 3.355 C 10.34 2.164 9.371 1.195 8.18 1.195 Z M 13.695 1.195 C 12.504 1.195 11.535 2.164 11.535 3.355 L 11.535 19.21 C 11.535 19.803 11.906 20.173 12.352 20.39 C 12.796 20.607 13.328 20.68 13.695 20.68 C 14.134 20.68 14.496 20.554 14.749 20.399 C 14.875 20.321 14.976 20.236 15.047 20.153 C 15.114 20.074 15.165 19.984 15.165 19.899 C 15.165 19.088 14.506 18.428 13.695 18.428 C 13.365 18.428 13.097 18.161 13.097 17.831 C 13.097 17.501 13.365 17.233 13.695 17.233 C 14.901 17.233 15.912 18.044 16.239 19.147 L 16.265 19.235 L 16.352 19.21 C 17.255 18.952 17.923 18.128 17.923 17.142 C 17.923 16.812 18.19 16.544 18.52 16.544 C 18.951 16.544 19.301 16.194 19.301 15.763 C 19.301 15.332 18.951 14.982 18.52 14.982 C 16.671 14.982 15.165 13.476 15.165 11.627 C 15.165 11.297 15.433 11.029 15.763 11.029 C 16.093 11.029 16.36 11.297 16.36 11.627 C 16.36 12.818 17.329 13.787 18.52 13.787 C 19.711 13.787 20.68 12.818 20.68 11.627 C 20.68 10.436 19.711 9.467 18.52 9.467 C 18.19 9.467 17.923 9.199 17.923 8.869 C 17.923 8.54 18.19 8.272 18.52 8.272 L 19.21 8.272 C 19.64 8.272 19.991 7.922 19.991 7.491 C 19.991 5.54 18.403 3.952 16.452 3.952 C 15.261 3.952 14.292 4.921 14.292 6.112 C 14.292 6.442 14.025 6.71 13.695 6.71 C 13.365 6.71 13.097 6.442 13.097 6.112 C 13.097 4.527 14.206 3.202 15.687 2.854 L 15.783 2.831 L 15.755 2.738 C 15.488 1.849 14.671 1.195 13.695 1.195 Z" fill="rgb(255, 255, 255)" height="21.875px" id="k6ZRBe5K6" stroke-dasharray="" stroke-linecap="butt" stroke-linejoin="miter" stroke-miterlimit="10" stroke-width="0.18" stroke="rgb(19, 68, 254)" transform="translate(1.563 1.563)" width="21.875px"/></svg>