<svg display="block" role="presentation" viewBox="0 0 25 25" xmlns="http://www.w3.org/2000/svg"><path d="M 16.129 0 C 17.15 0 17.981 0.831 17.981 1.852 C 17.981 2.873 17.15 3.704 16.129 3.704 C 16.016 3.704 15.905 3.694 15.797 3.674 L 15.733 3.662 L 15.701 3.719 L 14.943 5.045 L 14.902 5.118 L 14.97 5.166 C 15.646 5.639 16.236 6.229 16.709 6.905 L 16.757 6.973 L 16.83 6.932 L 18.156 6.174 L 18.213 6.142 L 18.201 6.078 C 18.181 5.97 18.171 5.859 18.171 5.746 C 18.171 4.725 19.002 3.894 20.023 3.894 C 21.044 3.894 21.875 4.725 21.875 5.746 C 21.875 6.767 21.044 7.598 20.023 7.598 C 19.561 7.598 19.138 7.428 18.813 7.147 L 18.764 7.104 L 18.707 7.136 L 17.382 7.893 L 17.309 7.935 L 17.344 8.011 C 17.753 8.903 17.981 9.894 17.981 10.938 C 17.981 13.067 17.031 14.979 15.532 16.272 L 15.468 16.327 L 15.517 16.395 L 16.813 18.209 L 16.85 18.262 L 16.913 18.244 C 17.076 18.196 17.249 18.171 17.427 18.171 C 18.448 18.171 19.279 19.002 19.279 20.023 C 19.279 21.044 18.448 21.875 17.427 21.875 C 16.406 21.875 15.575 21.044 15.575 20.023 C 15.575 19.628 15.699 19.262 15.911 18.96 L 15.949 18.907 L 15.911 18.854 L 14.616 17.041 L 14.567 16.972 L 14.494 17.015 C 13.45 17.629 12.234 17.981 10.938 17.981 C 9.418 17.981 8.01 17.498 6.859 16.677 L 6.79 16.628 L 6.735 16.692 L 4.764 18.992 L 4.721 19.042 L 4.754 19.098 C 4.912 19.37 5.002 19.686 5.002 20.023 C 5.002 21.044 4.171 21.875 3.15 21.875 C 2.129 21.875 1.298 21.044 1.298 20.023 C 1.298 19.002 2.129 18.171 3.15 18.171 C 3.386 18.171 3.611 18.215 3.819 18.296 L 3.88 18.32 L 3.922 18.27 L 5.894 15.969 L 5.949 15.906 L 5.891 15.845 C 4.656 14.576 3.894 12.844 3.894 10.938 C 3.894 9.225 4.508 7.653 5.529 6.431 L 5.582 6.366 L 2.757 3.541 L 2.711 3.494 L 2.652 3.523 C 2.41 3.639 2.139 3.704 1.852 3.704 C 0.831 3.704 0 2.873 0 1.852 C 0 0.831 0.831 0 1.852 0 C 2.873 0 3.704 0.831 3.704 1.852 C 3.704 2.139 3.639 2.41 3.523 2.652 L 3.494 2.711 L 3.541 2.757 L 6.366 5.582 L 6.431 5.529 C 7.653 4.508 9.225 3.894 10.938 3.894 C 11.981 3.894 12.972 4.122 13.864 4.531 L 13.94 4.566 L 13.982 4.493 L 14.739 3.168 L 14.771 3.111 L 14.728 3.062 C 14.447 2.737 14.277 2.314 14.277 1.852 C 14.277 0.831 15.108 0 16.129 0 Z M 3.15 19.279 C 2.74 19.279 2.407 19.613 2.407 20.023 C 2.407 20.433 2.74 20.766 3.15 20.766 C 3.56 20.766 3.894 20.433 3.894 20.023 C 3.894 19.613 3.56 19.279 3.15 19.279 Z M 17.427 19.279 C 17.017 19.279 16.683 19.613 16.683 20.023 C 16.683 20.433 17.017 20.766 17.427 20.766 C 17.837 20.766 18.171 20.433 18.171 20.023 C 18.171 19.613 17.837 19.279 17.427 19.279 Z M 10.937 5.002 C 7.665 5.002 5.002 7.665 5.002 10.937 C 5.002 14.21 7.665 16.873 10.937 16.873 C 14.21 16.873 16.873 14.21 16.873 10.937 C 16.873 7.665 14.21 5.002 10.937 5.002 Z M 20.023 5.002 C 19.613 5.002 19.279 5.336 19.279 5.746 C 19.279 6.156 19.613 6.489 20.023 6.489 C 20.433 6.489 20.766 6.156 20.766 5.746 C 20.766 5.336 20.433 5.002 20.023 5.002 Z M 1.852 1.109 C 1.442 1.109 1.109 1.442 1.109 1.852 C 1.109 2.262 1.442 2.596 1.852 2.596 C 2.262 2.596 2.596 2.262 2.596 1.852 C 2.596 1.442 2.262 1.109 1.852 1.109 Z M 16.129 1.109 C 15.719 1.109 15.386 1.442 15.386 1.852 C 15.386 2.262 15.719 2.596 16.129 2.596 C 16.539 2.596 16.873 2.262 16.873 1.852 C 16.873 1.442 16.539 1.109 16.129 1.109 Z" fill="rgb(255, 255, 255)" height="21.875px" id="eJAsSsQ4T" stroke-dasharray="" stroke-linecap="butt" stroke-linejoin="miter" stroke-miterlimit="10" stroke-width="0.18" stroke="rgb(19, 68, 254)" transform="translate(1.563 1.563)" width="21.875px"/><path d="M 0.555 0 C 0.862 0 1.096 0.251 1.109 0.558 C 1.123 0.849 0.847 1.109 0.555 1.109 C 0.248 1.109 0.014 0.858 0 0.55 C -0.013 0.26 0.263 0 0.555 0 Z" fill="rgb(255, 255, 255)" height="1.108676470588236px" id="DTDmBXsDL" stroke-dasharray="" stroke-linecap="butt" stroke-linejoin="miter" stroke-miterlimit="10" stroke-width="0.18" stroke="rgb(19, 68, 254)" transform="translate(10.157 14.94)" width="1.1099314914615626px"/><path d="M 0.555 0 C 0.862 0 1.096 0.251 1.109 0.558 C 1.122 0.849 0.847 1.109 0.555 1.109 C 0.248 1.109 0.014 0.858 0 0.55 C -0.013 0.26 0.263 0 0.555 0 Z" fill="rgb(255, 255, 255)" height="1.108676470588236px" id="N_AG4LAjN" stroke-dasharray="" stroke-linecap="butt" stroke-linejoin="miter" stroke-miterlimit="10" stroke-width="0.18" stroke="rgb(19, 68, 254)" transform="translate(8.692 12.053)" width="1.1099291469518704px"/><path d="M 0.555 0 C 0.862 0 1.096 0.251 1.109 0.558 C 1.123 0.849 0.847 1.109 0.555 1.109 C 0.248 1.109 0.014 0.858 0 0.55 C -0.013 0.26 0.263 0 0.555 0 Z" fill="rgb(255, 255, 255)" height="1.108676470588236px" id="FDZCVHrdK" stroke-dasharray="" stroke-linecap="butt" stroke-linejoin="miter" stroke-miterlimit="10" stroke-width="0.18" stroke="rgb(19, 68, 254)" transform="translate(12.613 11.924)" width="1.1099314914614773px"/><path d="M 0.555 0 C 0.862 0 1.096 0.251 1.109 0.558 C 1.123 0.849 0.847 1.109 0.555 1.109 C 0.248 1.109 0.014 0.858 0 0.55 C -0.013 0.26 0.263 0 0.555 0 Z" fill="rgb(255, 255, 255)" height="1.108676470588236px" id="bJ3awUNtS" stroke-dasharray="" stroke-linecap="butt" stroke-linejoin="miter" stroke-miterlimit="10" stroke-width="0.18" stroke="rgb(19, 68, 254)" transform="translate(14.638 14.725)" width="1.1099314914615626px"/><path d="M 0.555 0 C 0.862 0 1.096 0.251 1.109 0.558 C 1.123 0.849 0.847 1.109 0.555 1.109 C 0.248 1.109 0.014 0.858 0 0.55 C -0.013 0.26 0.263 0 0.555 0 Z" fill="rgb(255, 255, 255)" height="1.108676470588236px" id="S97zG7vNJ" stroke-dasharray="" stroke-linecap="butt" stroke-linejoin="miter" stroke-miterlimit="10" stroke-width="0.18" stroke="rgb(19, 68, 254)" transform="translate(11.349 8.951)" width="1.1099314914614808px"/><path d="M 0.555 0 C 0.862 0 1.096 0.251 1.109 0.558 C 1.122 0.849 0.847 1.109 0.555 1.109 C 0.248 1.109 0.014 0.858 0 0.55 C -0.013 0.26 0.263 0 0.555 0 Z" fill="rgb(255, 255, 255)" height="1.108676470588236px" id="j6cKKEAkw" stroke-dasharray="" stroke-linecap="butt" stroke-linejoin="miter" stroke-miterlimit="10" stroke-width="0.18" stroke="rgb(19, 68, 254)" transform="translate(15.284 10.115)" width="1.1099291493997967px"/></svg>