<svg display="block" role="presentation" viewBox="0 0 25 25" xmlns="http://www.w3.org/2000/svg"><path d="M 0.82 0 C 1.234 0.409 1.823 0.593 2.396 0.493 L 2.642 1.577 C 1.691 1.763 0.684 1.454 0 0.75 Z" fill="rgb(255, 255, 255)" height="1.6298444734723105px" id="D7nWYyFiz" stroke-dasharray="" stroke-linecap="butt" stroke-linejoin="miter" stroke-miterlimit="10" stroke-width="0.18" stroke="rgb(19, 68, 254)" transform="translate(14.251 11.941)" width="2.642463235294116px"/><path d="M 0.098 0 C 1.043 0.112 1.937 0.66 2.466 1.45 L 1.525 2.04 C 1.177 1.536 0.607 1.188 0 1.107 Z" fill="rgb(255, 255, 255)" height="2.0403676470588223px" id="q7_jMKG7Y" stroke-dasharray="" stroke-linecap="butt" stroke-linejoin="miter" stroke-miterlimit="10" stroke-width="0.18" stroke="rgb(19, 68, 254)" transform="translate(14.862 15.061)" width="2.466176470588266px"/><path d="M 0 0.554 C 1.031 -0.185 2.427 -0.185 3.457 0.554 L 2.783 1.436 C 2.15 1 1.308 0.999 0.675 1.436 Z" fill="rgb(255, 255, 255)" height="1.435523897401863px" id="XrCpO5SNl" stroke-dasharray="" stroke-linecap="butt" stroke-linejoin="miter" stroke-miterlimit="10" stroke-width="0.18" stroke="rgb(19, 68, 254)" transform="translate(14.399 8.929)" width="3.457463235294089px"/><path d="M 0 0.554 C 1.031 -0.185 2.427 -0.185 3.457 0.554 L 2.783 1.436 C 2.15 1 1.308 0.999 0.675 1.436 Z" fill="rgb(255, 255, 255)" height="1.435523897401863px" id="sl8UmoxOq" stroke-dasharray="" stroke-linecap="butt" stroke-linejoin="miter" stroke-miterlimit="10" stroke-width="0.18" stroke="rgb(19, 68, 254)" transform="translate(7.07 8.929)" width="3.457463235294089px"/><path d="M 9.657 0 L 12.23 0 C 15.847 0 18.794 3.005 18.794 6.703 L 18.794 6.704 L 18.796 7.754 L 18.796 7.846 L 19.135 7.846 L 19.135 7.846 C 20.088 7.894 20.784 8.27 21.235 8.799 C 21.688 9.33 21.899 10.021 21.872 10.706 C 21.845 11.39 21.579 12.064 21.084 12.56 C 20.59 13.054 19.862 13.377 18.899 13.352 L 18.801 13.35 L 18.805 13.449 C 19.018 18.008 15.43 21.903 10.944 21.888 L 10.944 21.888 C 6.458 21.903 2.87 18.007 3.083 13.449 L 3.088 13.346 L 2.985 13.353 C 1.388 13.464 -0.007 12.208 0 10.599 L 0 10.599 C -0.007 8.986 1.394 7.731 2.994 7.846 L 3.092 7.853 L 3.092 7.754 L 3.094 6.703 L 3.094 6.702 C 3.094 3.005 6.04 0 9.657 0 Z M 2.753 8.955 C 1.847 8.955 1.109 9.692 1.109 10.599 C 1.109 11.505 1.847 12.243 2.753 12.243 L 3.085 12.243 L 3.085 12.151 L 3.09 9.047 L 3.091 8.955 Z M 18.798 9.047 L 18.803 12.151 L 18.803 12.243 L 19.135 12.243 C 20.041 12.243 20.779 11.505 20.779 10.599 C 20.778 9.692 20.041 8.955 19.135 8.955 L 18.797 8.955 Z M 17.684 6.704 C 17.658 3.292 14.874 0.85 11.583 1.11 L 11.499 1.117 L 11.499 9.726 L 10.132 11.873 C 9.798 12.399 9.895 13.079 10.363 13.489 L 11.499 14.486 L 11.499 17.694 L 11.601 17.682 C 12.533 17.577 13.396 17.153 14.065 16.484 L 14.849 17.268 C 13.966 18.153 12.817 18.693 11.583 18.799 L 11.499 18.806 L 11.499 20.756 L 11.6 20.746 C 15.018 20.406 17.696 17.445 17.696 13.857 L 17.684 6.705 Z M 10.389 1.117 L 10.305 1.11 C 7.015 0.85 4.23 3.291 4.204 6.703 L 4.204 6.703 L 4.192 13.859 L 4.194 14.026 C 4.276 17.537 6.923 20.411 10.288 20.746 L 10.389 20.756 L 10.389 18.806 L 10.305 18.799 C 9.07 18.693 7.922 18.153 7.039 17.268 L 7.823 16.484 C 8.492 17.153 9.355 17.577 10.287 17.682 L 10.389 17.693 L 10.389 14.989 L 10.358 14.961 L 9.631 14.324 C 8.749 13.549 8.566 12.269 9.196 11.278 L 10.375 9.426 L 10.389 9.403 Z" fill="rgb(255, 255, 255)" height="21.887979355638315px" id="JD7kKQNE9" stroke-dasharray="" stroke-linecap="butt" stroke-linejoin="miter" stroke-miterlimit="10" stroke-width="0.18" stroke="rgb(19, 68, 254)" transform="translate(1.562 1.556)" width="21.87449340505974px"/></svg>